<svg width="40" height="40" viewBox="0 0 40 40" fill="none" xmlns="http://www.w3.org/2000/svg">
<path d="M20 40C31.0457 40 40 31.0457 40 20C40 8.9543 31.0457 0 20 0C8.9543 0 0 8.9543 0 20C0 31.0457 8.9543 40 20 40Z" fill="#627EEB"/>
<path d="M19.7606 6.66504L19.5781 7.26254V24.5789L19.7606 24.755L28.0906 20.0039L19.7606 6.66504Z" fill="#BFCDFA"/>
<path d="M19.759 6.66504L11.4277 20.0039L19.759 24.755V6.66504Z" fill="white"/>
<path d="M19.7587 26.2783L19.6562 26.3983V32.5683L19.7587 32.8558L28.0937 21.5283L19.7587 26.2783Z" fill="#BFCDFA"/>
<path d="M19.759 32.8558V26.277L11.4277 21.5283L19.759 32.8558Z" fill="white"/>
<path d="M19.7598 24.7575L28.0898 20.0063L19.7598 16.3525V24.7575Z" fill="#8199EF"/>
<path d="M11.4277 20.0063L19.7576 24.7575V16.3525" fill="#C5CAF4"/>
</svg>
