<svg width="30" height="30" viewBox="0 0 30 30" fill="none" xmlns="http://www.w3.org/2000/svg">
<g clip-path="url(#clip0_304_4245)">
<path d="M15 30C23.2843 30 30 23.2843 30 15C30 6.71573 23.2843 0 15 0C6.71573 0 0 6.71573 0 15C0 23.2843 6.71573 30 15 30Z" fill="#26A17B"/>
<path fill-rule="evenodd" clip-rule="evenodd" d="M16.8029 16.2969V16.295C16.6997 16.3025 16.1682 16.3344 14.9822 16.3344C14.0354 16.3344 13.3688 16.3063 13.1344 16.295V16.2978C9.48941 16.1375 6.76879 15.5028 6.76879 14.7434C6.76879 13.985 9.48941 13.3503 13.1344 13.1872V15.6659C13.3725 15.6828 14.055 15.7231 14.9982 15.7231C16.1297 15.7231 16.6969 15.6763 16.8029 15.6669V13.1891C20.4404 13.3513 23.1544 13.9859 23.1544 14.7434C23.1544 15.5028 20.4404 16.1356 16.8029 16.2969ZM16.8029 12.9313V10.7131H21.8785V7.33063H8.05879V10.7131H13.1344V12.9303C9.00941 13.1197 5.90723 13.9372 5.90723 14.9159C5.90723 15.8947 9.00941 16.7113 13.1344 16.9016V24.0097H16.8029V16.8997C20.9213 16.7103 24.016 15.8938 24.016 14.9159C24.016 13.9381 20.9213 13.1216 16.8029 12.9313Z" fill="white"/>
</g>
<defs>
<clipPath id="clip0_304_4245">
<rect width="30" height="30" fill="white"/>
</clipPath>
</defs>
</svg>
